<svg width="56" height="55" viewBox="0 0 56 55" fill="none" xmlns="http://www.w3.org/2000/svg">
<path d="M24.4933 29.1224V27.8367C24.4933 27.4751 24.7746 27.1938 25.1362 27.1938H39.279C39.6406 27.1938 39.9219 27.4751 39.9219 27.8367V29.1224C39.9219 29.484 39.6406 29.7652 39.279 29.7652H25.1362C24.7746 29.7652 24.4933 29.484 24.4933 29.1224Z" fill="white"/>
<path d="M25.1362 32.3367H39.279C39.6406 32.3367 39.9219 32.6179 39.9219 32.9795V34.2652C39.9219 34.6268 39.6406 34.9081 39.279 34.9081H25.1362C24.7746 34.9081 24.4933 34.6268 24.4933 34.2652V32.9795C24.4933 32.6179 24.7746 32.3367 25.1362 32.3367Z" fill="white"/>
<path d="M25.1362 37.4795H39.279C39.6406 37.4795 39.9219 37.7608 39.9219 38.1224V39.4081C39.9219 39.7697 39.6406 40.0509 39.279 40.0509H25.1362C24.7746 40.0509 24.4933 39.7697 24.4933 39.4081V38.1224C24.4933 37.7608 24.7746 37.4795 25.1362 37.4795Z" fill="white"/>
<path fill-rule="evenodd" clip-rule="evenodd" d="M16.779 21.0647C12.6838 21.0647 9.36401 17.7449 9.36401 13.6497C9.36401 9.55455 12.6838 6.23474 16.779 6.23474C20.223 6.23474 23.1186 8.58271 23.9524 11.7652H36.7076C37.7723 11.7652 39.2589 12.388 40.0022 13.1313L46.2701 19.3992C47.0134 20.1425 47.6362 21.6291 47.6362 22.6938V45.8367C47.6362 46.9014 46.7723 47.7652 45.7076 47.7652H18.7076C17.6429 47.7652 16.779 46.9014 16.779 45.8367L16.779 21.0647ZM19.3504 20.6067C21.9729 19.6371 23.8971 17.2269 24.1626 14.3367H34.779V22.6938C34.779 23.7585 35.6429 24.6224 36.7076 24.6224H45.0647V45.1938H19.3504V20.6067ZM38.1741 14.9393C38.0335 14.7987 37.692 14.6179 37.3504 14.4974V22.0509H44.904C44.7835 21.7094 44.6027 21.3679 44.4621 21.2273L38.1741 14.9393ZM17.779 14.6498H21.779V12.6498H17.779V8.64978H15.779V12.6498H11.779V14.6498H15.779V18.6498H17.779V14.6498Z" fill="white"/>
</svg>
