<svg width="18" height="21" viewBox="0 0 18 21" fill="none" xmlns="http://www.w3.org/2000/svg">
<path d="M16.8126 4.60899L13.3305 1.12685C12.9176 0.713902 12.0917 0.36792 11.5001 0.36792H1.50014C0.908622 0.36792 0.428711 0.847831 0.428711 1.43935V19.2965C0.428711 19.888 0.908622 20.3679 1.50014 20.3679H16.5001C17.0917 20.3679 17.5716 19.888 17.5716 19.2965V6.43935C17.5716 5.84783 17.2256 5.02194 16.8126 4.60899ZM11.8573 1.88578C12.047 1.95274 12.2367 2.05319 12.3149 2.13131L15.8082 5.62462C15.8863 5.70274 15.9867 5.89247 16.0537 6.08221H11.8573V1.88578ZM16.143 18.9394H1.85728V1.79649H10.4287V6.43935C10.4287 7.03087 10.9086 7.51078 11.5001 7.51078H16.143V18.9394ZM4.71443 9.29649V10.0108C4.71443 10.2117 4.87068 10.3679 5.07157 10.3679H12.9287C13.1296 10.3679 13.2859 10.2117 13.2859 10.0108V9.29649C13.2859 9.0956 13.1296 8.93935 12.9287 8.93935H5.07157C4.87068 8.93935 4.71443 9.0956 4.71443 9.29649ZM12.9287 11.7965H5.07157C4.87068 11.7965 4.71443 11.9527 4.71443 12.1536V12.8679C4.71443 13.0688 4.87068 13.2251 5.07157 13.2251H12.9287C13.1296 13.2251 13.2859 13.0688 13.2859 12.8679V12.1536C13.2859 11.9527 13.1296 11.7965 12.9287 11.7965ZM12.9287 14.6536H5.07157C4.87068 14.6536 4.71443 14.8099 4.71443 15.0108V15.7251C4.71443 15.926 4.87068 16.0822 5.07157 16.0822H12.9287C13.1296 16.0822 13.2859 15.926 13.2859 15.7251V15.0108C13.2859 14.8099 13.1296 14.6536 12.9287 14.6536Z" fill="#272733"/>
</svg>
