<svg width="21" height="21" viewBox="0 0 21 21" fill="none" xmlns="http://www.w3.org/2000/svg">
<path d="M14.9337 8.51085C14.9337 8.43942 14.8979 8.35906 14.8444 8.30549L14.3979 7.85906C14.3444 7.80549 14.264 7.76978 14.1926 7.76978C14.1212 7.76978 14.0408 7.80549 13.9872 7.85906L10.4783 11.368L6.96938 7.85906C6.91581 7.80549 6.83545 7.76978 6.76402 7.76978C6.68366 7.76978 6.61223 7.80549 6.55866 7.85906L6.11223 8.30549C6.05866 8.35906 6.02295 8.43942 6.02295 8.51085C6.02295 8.58228 6.05866 8.66263 6.11223 8.7162L10.2729 12.8769C10.3265 12.9305 10.4069 12.9662 10.4783 12.9662C10.5497 12.9662 10.6301 12.9305 10.6837 12.8769L14.8444 8.7162C14.8979 8.66263 14.9337 8.58228 14.9337 8.51085Z" fill="black"/>
</svg>
