<svg width="56" height="55" viewBox="0 0 56 55" fill="none" xmlns="http://www.w3.org/2000/svg">
<g id="message">
<path id="&#239;&#128;&#131;" d="M44.9286 38.8572C44.9286 39.1987 44.6272 39.5001 44.2857 39.5001H14.7143C14.3728 39.5001 14.0714 39.1987 14.0714 38.8572V23.4286C14.4933 23.9108 14.9554 24.3527 15.4576 24.7545C18.3304 26.9643 21.2232 29.2143 24.0156 31.5447C25.5223 32.8103 27.3906 34.3572 29.4799 34.3572H29.5H29.5201C31.6094 34.3572 33.4777 32.8103 34.9844 31.5447C37.7768 29.2143 40.6696 26.9643 43.5424 24.7545C44.0446 24.3527 44.5067 23.9108 44.9286 23.4286V38.8572ZM44.9286 17.7434C44.9286 19.4509 43.2813 21.6809 41.9754 22.7054C39.2835 24.8148 36.5915 26.9442 33.9196 29.0737C32.8549 29.9376 30.9263 31.7858 29.5201 31.7858H29.5H29.4799C28.0737 31.7858 26.1451 29.9376 25.0804 29.0737C22.4085 26.9442 19.7165 24.8148 17.0246 22.7054C15.2165 21.2791 14.0714 19.2902 14.0714 17.0001C14.0714 16.6585 14.3728 16.3572 14.7143 16.3572H44.2857C45.0491 16.3572 44.9286 17.2411 44.9286 17.7434ZM47.5 17.0001C47.5 15.2322 46.0536 13.7858 44.2857 13.7858H14.7143C12.9464 13.7858 11.5 15.2322 11.5 17.0001V38.8572C11.5 40.6251 12.9464 42.0715 14.7143 42.0715H44.2857C46.0536 42.0715 47.5 40.6251 47.5 38.8572V17.0001Z" fill="white"/>
</g>
</svg>
