<svg width="56" height="55" viewBox="0 0 56 55" fill="none" xmlns="http://www.w3.org/2000/svg">
<g id="money">
<path id="&#239;&#131;&#150;" d="M24.4286 31.7858V29.8572H27V24.0715H26.9598C26.6384 24.5737 26.3371 24.7947 25.8549 25.2166L24.308 23.6094L27.2812 20.8572H29.5714V29.8572H32.1429V31.7858H24.4286ZM34.7143 26.6429C34.7143 22.9867 32.5045 18.2858 28.2857 18.2858C24.067 18.2858 21.8571 22.9867 21.8571 26.6429C21.8571 30.2992 24.067 35.0001 28.2857 35.0001C32.5045 35.0001 34.7143 30.2992 34.7143 26.6429ZM45 31.7858C42.1674 31.7858 39.8571 34.096 39.8571 36.9286H16.7143C16.7143 34.096 14.404 31.7858 11.5714 31.7858V21.5001C14.404 21.5001 16.7143 19.1898 16.7143 16.3572H39.8571C39.8571 19.1898 42.1674 21.5001 45 21.5001V31.7858ZM47.5714 15.0715C47.5714 14.3684 46.9888 13.7858 46.2857 13.7858H10.2857C9.58259 13.7858 9 14.3684 9 15.0715V38.2143C9 38.9175 9.58259 39.5001 10.2857 39.5001H46.2857C46.9888 39.5001 47.5714 38.9175 47.5714 38.2143V15.0715Z" fill="white"/>
</g>
</svg>
