<svg width="56" height="55" viewBox="0 0 56 55" fill="none" xmlns="http://www.w3.org/2000/svg">
<path d="M38.2858 35.2143C38.2858 36.6205 37.1206 37.7857 35.7144 37.7857C34.3081 37.7857 33.143 36.6205 33.143 35.2143C33.143 33.808 34.3081 32.6428 35.7144 32.6428C37.1206 32.6428 38.2858 33.808 38.2858 35.2143ZM22.8572 19.7857C22.8572 21.1919 21.6921 22.3571 20.2858 22.3571C18.8796 22.3571 17.7144 21.1919 17.7144 19.7857C17.7144 18.3794 18.8796 17.2143 20.2858 17.2143C21.6921 17.2143 22.8572 18.3794 22.8572 19.7857ZM43.4287 35.2143C43.4287 30.9553 39.9733 27.5 35.7144 27.5C31.4555 27.5 28.0001 30.9553 28.0001 35.2143C28.0001 39.4732 31.4555 42.9286 35.7144 42.9286C39.9733 42.9286 43.4287 39.4732 43.4287 35.2143ZM41.5001 13.3571C41.5001 12.654 40.9175 12.0714 40.2144 12.0714H37.0001C36.5983 12.0714 36.2166 12.2723 35.9756 12.5937L14.7613 40.8794C14.6006 41.1004 14.5001 41.3616 14.5001 41.6428C14.5001 42.346 15.0827 42.9286 15.7858 42.9286H19.0001C19.4019 42.9286 19.7836 42.7277 20.0247 42.4062L41.2389 14.1205C41.3997 13.8995 41.5001 13.6384 41.5001 13.3571ZM28.0001 19.7857C28.0001 15.5268 24.5447 12.0714 20.2858 12.0714C16.0269 12.0714 12.5715 15.5268 12.5715 19.7857C12.5715 24.0446 16.0269 27.5 20.2858 27.5C24.5447 27.5 28.0001 24.0446 28.0001 19.7857Z" fill="white"/>
</svg>
