<svg width="21" height="20" viewBox="0 0 21 20" fill="none" xmlns="http://www.w3.org/2000/svg">
<g id="&#208;&#160;&#208;&#181;&#209;&#129;&#209;&#131;&#209;&#128;&#209;&#129; 1 1" clip-path="url(#clip0_148_2365)">
<g id="&#208;&#161;&#208;&#187;&#208;&#190;&#208;&#185; 2">
<g id="Layer 1">
<path id="Vector" d="M16.9118 13.4559C16.9719 13.8435 16.845 14.0076 16.7167 14.0076C16.5885 14.0076 16.4028 13.85 16.1957 13.5373C15.9886 13.2245 15.9178 12.8769 16.018 12.6986C16.0558 12.6368 16.1167 12.5915 16.1881 12.572C16.2595 12.5525 16.3359 12.5604 16.4014 12.5939C16.7421 12.718 16.8757 13.2233 16.9118 13.4559ZM15.0241 14.3061C15.4342 14.6408 15.5585 15.0389 15.3421 15.3193C15.2761 15.3977 15.1921 15.46 15.0968 15.5013C15.0014 15.5426 14.8974 15.5617 14.793 15.557C14.5642 15.5574 14.3425 15.4801 14.1665 15.3386C13.7951 15.0246 13.6855 14.5142 13.9287 14.2247C13.9824 14.1653 14.0494 14.1186 14.1247 14.0881C14.1999 14.0577 14.2814 14.0443 14.3628 14.049C14.6077 14.0569 14.8418 14.1479 15.0241 14.3061ZM14.3401 17.5367C16.1022 17.5367 18.0139 18.1208 20.1313 19.9351C20.3424 20.1161 20.6243 19.8912 20.4399 19.6651C18.3599 17.1258 16.4322 16.6412 14.5178 16.2329C12.1719 15.7315 10.9643 14.4535 10.1186 13.0514C9.95164 12.7723 9.87549 12.8214 9.8608 13.1806C9.84676 13.7131 9.88838 14.2456 9.98504 14.7701C9.89019 14.7701 9.794 14.7701 9.69915 14.7701C8.49695 14.7701 7.32175 14.4252 6.32216 13.7792C5.32257 13.1331 4.54349 12.2148 4.08343 11.1404C3.62337 10.0661 3.50299 8.88385 3.73753 7.7433C3.97207 6.60275 4.55098 5.55509 5.40106 4.7328C6.25114 3.91051 7.33421 3.35053 8.51331 3.12366C9.69241 2.89679 10.9146 3.01322 12.0253 3.45824C13.1359 3.90326 14.0853 4.65688 14.7532 5.62379C15.4211 6.5907 15.7776 7.72748 15.7776 8.89037C15.7782 9.11877 15.7652 9.347 15.7388 9.57397C15.0985 9.49597 14.4513 9.48427 13.8084 9.53908C13.5773 9.55846 13.6107 9.6683 13.7844 9.69285C15.7883 10.043 17.1749 11.2435 17.4902 13.4339C17.4913 13.445 17.4961 13.4555 17.5037 13.4638C17.5113 13.4721 17.5215 13.478 17.5328 13.4804C17.544 13.4828 17.5558 13.4818 17.5664 13.4774C17.5769 13.473 17.5858 13.4654 17.5917 13.4559C18.6341 11.7703 19.0705 9.79838 18.8328 7.84774C18.5951 5.89709 17.6967 4.07738 16.2777 2.67245C14.8587 1.26752 12.999 0.356356 10.9885 0.0810911C8.97796 -0.194174 6.92981 0.181935 5.16347 1.15075C3.39714 2.11957 2.01194 3.62662 1.22393 5.43683C0.435927 7.24704 0.289431 9.25863 0.807291 11.1578C1.32515 13.057 2.47825 14.737 4.08673 15.9358C5.69521 17.1346 7.66862 17.7848 9.69915 17.7849C11.0417 17.7887 12.379 17.5355 14.3401 17.5355V17.5367Z" fill="#3E9CDC"/>
</g>
</g>
</g>
<defs>
<clipPath id="clip0_148_2365">
<rect width="20" height="20" fill="white" transform="translate(0.5)"/>
</clipPath>
</defs>
</svg>
