<svg width="56" height="55" viewBox="0 0 56 55" fill="none" xmlns="http://www.w3.org/2000/svg">
<path d="M34.4285 24.9285C34.4285 29.8906 30.3906 33.9285 25.4285 33.9285C20.4664 33.9285 16.4285 29.8906 16.4285 24.9285C16.4285 19.9664 20.4664 15.9285 25.4285 15.9285C30.3906 15.9285 34.4285 19.9664 34.4285 24.9285ZM44.7142 41.6428C44.7142 40.9598 44.433 40.2968 43.9709 39.8348L37.0803 32.9441C38.7075 30.5937 39.5714 27.7812 39.5714 24.9285C39.5714 17.1138 33.2432 10.7856 25.4285 10.7856C17.6138 10.7856 11.2856 17.1138 11.2856 24.9285C11.2856 32.7432 17.6138 39.0714 25.4285 39.0714C28.2812 39.0714 31.0937 38.2075 33.4441 36.5803L40.3348 43.4508C40.7968 43.933 41.4598 44.2142 42.1428 44.2142C43.549 44.2142 44.7142 43.049 44.7142 41.6428Z" fill="white"/>
</svg>
