<svg width="21" height="20" viewBox="0 0 21 20" fill="none" xmlns="http://www.w3.org/2000/svg">
<g id="Frame 21">
<path id="&#208;&#146;" d="M15.1802 12.2863C15.1802 12.9366 15.0571 13.5079 14.811 14.0001C14.5649 14.4923 14.2339 14.8995 13.8179 15.2218C13.3257 15.6085 12.7837 15.8839 12.1919 16.048C11.606 16.212 10.8589 16.2941 9.95068 16.2941H4.7124V3.20715H9.33545C10.2964 3.20715 11.0229 3.24524 11.5151 3.32141C12.0132 3.39172 12.479 3.54407 12.9126 3.77844C13.3813 4.0304 13.73 4.36731 13.9585 4.78918C14.1929 5.21106 14.3101 5.69739 14.3101 6.24817C14.3101 6.88684 14.1489 7.4552 13.8267 7.95325C13.5103 8.45129 13.0708 8.8175 12.5083 9.05188V9.12219C13.3169 9.29211 13.9644 9.64075 14.4507 10.1681C14.937 10.6896 15.1802 11.3956 15.1802 12.2863ZM10.9702 6.90735C10.9702 6.69641 10.9146 6.47961 10.8032 6.25696C10.6978 6.0343 10.5308 5.87317 10.3022 5.77356C10.0854 5.67981 9.82764 5.63 9.52881 5.62415C9.23584 5.61243 8.79639 5.60657 8.21045 5.60657H7.98193V8.37512H8.39502C8.95752 8.37512 9.3501 8.36926 9.57275 8.35754C9.80127 8.34583 10.0356 8.2843 10.2759 8.17297C10.5396 8.04993 10.7212 7.88 10.8208 7.66321C10.9204 7.44641 10.9702 7.19446 10.9702 6.90735ZM11.7964 12.2247C11.7964 11.8204 11.7144 11.504 11.5503 11.2755C11.3862 11.047 11.1401 10.8741 10.812 10.757C10.6128 10.6808 10.3374 10.6398 9.98584 10.6339C9.64014 10.6222 9.17432 10.6163 8.58838 10.6163H7.98193V13.8947H8.15771C9.01318 13.8947 9.60498 13.8888 9.93311 13.8771C10.2612 13.8654 10.5952 13.7863 10.9351 13.6398C11.2339 13.5109 11.4507 13.3234 11.5854 13.0773C11.7261 12.8253 11.7964 12.5411 11.7964 12.2247Z" fill="#3E9CDC"/>
</g>
</svg>
