<svg width="21" height="20" viewBox="0 0 21 20" fill="none" xmlns="http://www.w3.org/2000/svg">
<g id="Frame 21" clip-path="url(#clip0_148_2378)">
<path id="Combined Shape" d="M9.34074 0C10.751 0 12.0928 0.323103 13.2968 0.901077C13.4857 0.986269 13.6757 1.08823 13.8639 1.19028L13.0383 1.92159L11.8007 0.646297L9.66799 2.51651L8.41211 1.17307L4.49045 4.65889L7.00123 7.39646L6.02105 8.24641L8.49819 10.984L7.51792 11.8336L11.0613 15.7274L13.1585 13.823L14.9825 15.8639C14.621 16.136 14.2254 16.4086 13.7959 16.6462C12.4885 17.3773 10.9747 17.8016 9.35811 17.8016C4.38688 17.8016 0.345516 13.8066 0.345516 8.89314C0.327961 4.01286 4.37004 0 9.34074 0ZM7.68928 8.34864L9.83934 6.44418L11.7661 8.56952L9.61564 10.4738L7.68928 8.34864ZM9.2205 12.0214L11.3531 10.1001L13.2968 12.2253L11.1467 14.1298L9.2205 12.0214ZM6.15939 4.72713L8.30883 2.82267L10.2352 4.948L8.08504 6.85238L6.15939 4.72713ZM10.0974 3.70661L11.6971 2.27842L13.1423 3.85978L11.5425 5.30484L10.0974 3.70661ZM12.9529 10.2528L14.5521 8.82456L15.9971 10.4224L14.3973 11.8516L12.9529 10.2528ZM14.3631 13.4668L15.9629 12.0382L17.4068 13.6195L15.8076 15.0644L14.3631 13.4668ZM15.0168 6.12107L16.083 5.16879L17.0459 6.22339L15.9798 7.17531L15.0168 6.12107ZM13.6408 2.97548L14.7071 2.00651L15.6707 3.07753L14.6036 4.02972L13.6408 2.97548ZM16.3754 9.26693L17.4417 8.31474L18.422 9.36899L17.3388 10.3209L16.3754 9.26693ZM11.5768 6.90341L13.1766 5.47513L14.621 7.05614L13.0219 8.48469L11.5768 6.90341Z" fill="#3E9CDC"/>
</g>
<defs>
<clipPath id="clip0_148_2378">
<rect width="20" height="20" fill="white" transform="translate(0.5)"/>
</clipPath>
</defs>
</svg>
