<svg width="21" height="20" viewBox="0 0 21 20" fill="none" xmlns="http://www.w3.org/2000/svg">
<g id="Frame 20">
<g id="Group 23">
<path id="Vector" fill-rule="evenodd" clip-rule="evenodd" d="M3.77999 9.9307C3.77999 8.94664 3.86318 8.32213 5.91826 6.80087C7.61964 5.54138 13.0732 1.23743 13.0732 1.23743V8.42209H17.2204V18.7627H5.07533C4.36291 18.7627 3.77979 18.1844 3.77979 17.4778L3.77999 9.93076V9.9307Z" fill="#3E9CDC"/>
<path id="Vector_2" fill-rule="evenodd" clip-rule="evenodd" d="M13.0733 8.422V12.585L5.45239 17.7335L15.0876 14.6246V8.422H13.0733Z" fill="black" fill-opacity="0.2"/>
<path id="Vector_3" fill-rule="evenodd" clip-rule="evenodd" d="M9.59049 8.20685C10.0362 7.68023 10.6871 7.49436 11.0444 7.79173C11.4018 8.08915 11.3304 8.75719 10.8847 9.2838C10.4393 9.81035 9.7882 9.99602 9.43081 9.69859C9.07343 9.40123 9.14507 8.73333 9.59049 8.20678V8.20685Z" fill="#231F20"/>
</g>
</g>
</svg>
